<svg width="300" height="500" viewBox="0 0 300 500" fill="none" xmlns="http://www.w3.org/2000/svg">
<g id="Body Front">
<rect width="300" height="500" fill="white"/>
<g id="traps">
<path id="Vector 9" d="M108.5 103C112.5 98 125.5 89 139 81.5C139 81 144.5 97.5 152 105.5C153.5 106 106.5 105 108.5 103Z" stroke="black"/>
<path id="Vector 10" d="M205.535 103.511C201.535 98.5111 188.535 89.5111 175.035 82.0111C175.035 81.5111 169.535 98.0111 162.035 106.011C160.535 106.511 207.535 105.511 205.535 103.511Z" stroke="black"/>
</g>
<g id="neck_front">
<path id="Vector 7" d="M141 82V73.5C142.667 75.3333 146.5 80.5 151 82C151 84.8333 150.5 93.5 153.5 103.5L153 104C150.833 101.333 144.5 93.5 141 82Z" stroke="black"/>
<path id="Vector 8" d="M172.5 82.5V74C170.833 75.8333 167 81 162.5 82.5C162.5 85.3333 163 94 160 104L160.5 104.5C162.667 101.833 169 94 172.5 82.5Z" stroke="black"/>
<path id="Vector 11" d="M160.5 82.5004C158.5 83.0004 155 83.0004 152.5 82.5004C152 83.0004 153.5 98.5004 155 104C155 104 156.5 105.5 158 104C160 100.5 161.5 82.25 160.5 82.5004Z" stroke="black"/>
</g>
<g id="delts">
<path id="Vector 12" d="M98.5 106C100.29 105.403 116 105 120 108C122 109.5 120 120 113.5 127C108.935 131.916 98 142.5 85 147C84.5 148 82 135.5 82.5 125.5C82.5 120.5 86.5 110 98.5 106Z" stroke="black"/>
<path id="Vector 13" d="M215.242 106.42C213.452 105.824 197.742 105.42 193.742 108.42C191.742 109.92 193.742 120.42 200.242 127.42C204.807 132.336 215.742 142.92 228.742 147.42C229.242 148.42 231.742 135.92 231.242 125.92C231.242 120.92 227.242 110.42 215.242 106.42Z" stroke="black"/>
</g>
<g id="pecs">
<path id="Vector 14" d="M106 138C104.5 138 120.5 124 125 110C124 109 139 107.5 149.5 108.5C153 109.5 154.5 112 155 113.5C155.5 117 156.5 125.5 155 136C155 137 142.5 144.5 129.5 152C129.5 152.5 112.4 146.8 106 138Z" stroke="black"/>
<path id="Vector 15" d="M207.792 138.83C209.292 138.83 193.292 124.83 188.792 110.83C189.792 109.83 174.792 108.33 164.292 109.33C160.792 110.33 159.292 112.83 158.792 114.33C158.292 117.83 157.292 126.33 158.792 136.83C158.792 137.83 171.292 145.33 184.292 152.83C184.292 153.33 201.392 147.63 207.792 138.83Z" stroke="black"/>
</g>
<g id="abs_upper">
<path id="Vector 16" d="M133 153C135.5 151.5 151 143 152 143.5C153 144.5 153.5 146 154.5 147C155 148 155.5 152.5 154.5 159C154.5 159.5 143 158.5 133 162C132.787 162.074 132.739 153.147 133 153Z" stroke="black"/>
<path id="Vector 17" d="M180.077 152.521C177.577 151.021 162.077 142.521 161.077 143.021C160.077 144.021 159.577 145.521 158.577 146.521C158.077 147.521 157.577 152.021 158.577 158.521C158.577 159.021 170.077 158.021 180.077 161.521C180.29 161.596 180.338 152.668 180.077 152.521Z" stroke="black"/>
<path id="Vector 18" d="M133 164.5C133.5 163.5 145.5 160 155 161C155.995 161.105 156 172 154 180.5C154 181 141 178.5 133 178.5C132.5 178 132.5 170.5 133 164.5Z" stroke="black"/>
<path id="Vector 19" d="M180.655 164.678C180.155 163.678 168.155 160.178 158.655 161.178C157.66 161.282 157.655 172.178 159.655 180.678C159.655 181.178 172.655 178.678 180.655 178.678C181.155 178.178 181.155 170.678 180.655 164.678Z" stroke="black"/>
</g>
<g id="abs_lower">
<path id="Vector 20" d="M154.5 183.5C153.5 183 133 179 132.5 180C132 183 132.5 190 132.5 196C133.5 197 144 201 153.5 203C154.513 203.213 155.5 191 154.5 183.5Z" stroke="black"/>
<path id="Vector 21" d="M158.417 183.66C159.417 183.16 179.917 179.16 180.417 180.16C180.917 183.16 180.417 190.16 180.417 196.16C179.417 197.16 168.917 201.16 159.417 203.16C158.403 203.373 157.417 191.16 158.417 183.66Z" stroke="black"/>
<path id="Vector 22" d="M133.5 213.5C133.167 211.333 132.7 205.4 133.5 199C134 198.5 147.5 204.1 155.5 210.5C155.667 215.333 157 230 155 247C154 248 138 228.5 133.5 213.5Z" stroke="black"/>
<path id="Vector 23" d="M180.589 213.531C180.923 211.364 181.389 205.431 180.589 199.031C180.089 198.531 166.589 204.131 158.589 210.531C158.423 215.364 157.089 230.031 159.089 247.031C160.089 248.031 176.089 228.531 180.589 213.531Z" stroke="black"/>
</g>
<g id="triceps">
<path id="Vector 24" d="M98 144.5C98 144 100 141.5 103.5 139.5C104.5 139.5 109.905 146.5 109.5 148C107.833 154.167 105.5 168.5 97 176C96.7657 176.297 96.9032 173 97 171.5C97.3333 166.333 98 153.7 98 144.5Z" stroke="black"/>
<path id="Vector 25" d="M216.522 145C216.522 144.5 214.522 142 211.022 140C210.022 140 204.616 147 205.022 148.5C206.688 154.667 208.5 169 217 176.5C217.234 176.797 217.097 173.5 217 172C216.667 166.833 216.522 154.2 216.522 145Z" stroke="black"/>
</g>
<g id="serratus">
<path id="Vector 26" d="M108.5 165.5C108.5 162.5 111 149.5 112 149C114 149 123.5 153 124 154.5C124 156 116.5 165.5 115 174.5C115 175 108.5 167 108.5 165.5Z" stroke="black"/>
<path id="Vector 27" d="M205.5 164.5C205.5 161.5 203 148.5 202 148C200 148 190.5 152 190 153.5C190 155 197.5 164.5 199 173.5C199 174 205.5 166 205.5 164.5Z" stroke="black"/>
</g>
<g id="obliques">
<path id="Vector 28" d="M116.5 175C117 169 128 152.5 130.5 153C131 159 130.5 179 130.5 195C130 196 120.5 183.8 116.5 175Z" stroke="black"/>
<path id="Vector 29" d="M197.222 176.011C196.722 170.011 185.722 153.511 183.222 154.011C182.722 160.011 183.222 180.011 183.222 196.011C183.722 197.011 193.222 184.811 197.222 176.011Z" stroke="black"/>
</g>
<g id="hip_flexors">
<path id="Vector 30" d="M118.5 217.5C118.5 211.833 118.9 197.7 120.5 186.5C120.571 186 126.5 195 131.5 197.5C132 197.5 130.5 209 132.5 217.5C133.088 220 138 229.5 151 246C152 246.5 142.5 246 139 246C136 243 128.9 233.5 118.5 217.5Z" stroke="black"/>
<path id="Vector 31" d="M195.573 218.02C195.573 212.353 195.173 198.22 193.573 187.02C193.502 186.52 187.573 195.52 182.573 198.02C182.073 198.02 183.573 209.52 181.573 218.02C180.985 220.52 176.073 230.02 163.073 246.52C162.073 247.02 171.573 246.52 175.073 246.52C178.073 243.52 185.173 234.02 195.573 218.02Z" stroke="black"/>
</g>
<g id="biceps">
<path id="Vector 35" d="M83 151.5C84.1667 150.333 88.4 147.2 96 144C96.5 143.789 95.9 164.9 95.5 178.5C96 179 91.5 183 85.5 189C84.3333 190.167 78 195 76.5 194C75 189 74 177 74 169.5C75 166.5 78.2 159.1 83 151.5Z" stroke="black"/>
<path id="Vector 36" d="M231.19 151.502C230.023 150.335 225.79 147.202 218.19 144.002C217.69 143.791 218.29 164.902 218.69 178.502C218.19 179.002 222.69 183.002 228.69 189.002C229.857 190.168 236.19 195.002 237.69 194.002C239.19 189.002 240.19 177.002 240.19 169.502C239.19 166.502 235.99 159.102 231.19 151.502Z" stroke="black"/>
</g>
<g id="forearms">
<path id="Vector 37" d="M60 203C61.3333 199.167 65.8 189.1 73 179.5C73.5 179 73.5 191 75 195C75.3333 196.833 75.8 202.1 75 208.5C74.9123 209.201 69.8 218.9 67 226.5C66.1783 228.73 64.5 236 62.5 244C62.4329 244.269 53.5 243.5 53.5 243C54.8333 235 58 215.8 60 203Z" stroke="black"/>
<path id="Vector 38" d="M254.442 202.515C253.108 198.682 248.642 188.615 241.442 179.015C240.942 178.515 240.942 190.515 239.442 194.515C239.108 196.349 238.642 201.615 239.442 208.015C239.529 208.716 244.642 218.415 247.442 226.015C248.263 228.245 249.942 235.515 251.942 243.515C252.009 243.784 260.942 243.015 260.942 242.515C259.608 234.515 256.442 215.315 254.442 202.515Z" stroke="black"/>
<path id="Vector 40" d="M235.598 196.5C231.598 194.5 221.598 185 218.098 182C217.598 182 219.098 194 220.598 200.5C222.098 202 229.198 205.1 235.598 207.5C236.237 207.74 235.598 200.5 235.598 196.5Z" stroke="black"/>
<path id="Vector 39" d="M78 196.5C82 194.5 92 185 95.5 182C96 182 94.5 194 93 200.5C91.5 202 84.4 205.1 78 207.5C77.3613 207.74 78 200.5 78 196.5Z" stroke="black"/>
<path id="Vector 42" d="M237.601 210.5C235.601 209.5 230.101 207 222.101 204C221.601 204 223.101 210.5 223.601 212C225.934 214.167 231.401 220.1 236.601 226.5C238.267 229 242.801 235.5 249.601 245.5C250.101 246 248.201 235.8 246.601 229C245.267 226.167 241.601 218.5 237.601 210.5Z" stroke="black"/>
<path id="Vector 41" d="M77 210C79 209 84.5 206.5 92.5 203.5C93 203.5 91.5 210 91 211.5C88.6667 213.667 83.2 219.6 78 226C76.3333 228.5 71.8 235 65 245C64.5 245.5 66.4 235.3 68 228.5C69.3333 225.667 73 218 77 210Z" stroke="black"/>
</g>
<g id="abductors">
<path id="Vector 47" d="M112.5 246C114.833 242 120.1 233.1 122.5 229.5C123 229 120.5 243 117.5 246.5C114.72 249.744 113.5 256.9 111.5 264.5C110.5 265.5 107.7 276.5 106.5 276.5C105.5 276.5 108.5 252.857 112.5 246Z" stroke="black"/>
<path id="Vector 48" d="M200.064 245.513C197.731 241.513 192.464 232.613 190.064 229.013C189.564 228.513 192.064 242.513 195.064 246.013C197.844 249.257 199.064 256.413 201.064 264.013C201.397 264.846 205.3 275 206.5 275C207.5 275 203.5 251.403 200.064 245.513Z" stroke="black"/>
</g>
<g id="adductors">
<path id="Vector 33" d="M131 257.5C130 253.759 129.5 238.5 130 238.5C135.667 244.833 148 259.5 154.5 265C154.5 265 155 269.679 154.5 269.5C149.833 267.833 138.6 263.1 131 257.5Z" stroke="black"/>
<path id="Vector 34" d="M182.722 258C183.722 254.259 184.222 239 183.722 239C178.056 245.333 165.722 260 159.222 265.5C159.222 265.5 158.722 270.179 159.222 270C163.889 268.333 175.122 263.6 182.722 258Z" stroke="black"/>
<path id="Vector 51" d="M136 280C135.167 276.333 133 263.5 133.5 263C135 263.5 149 269.5 154 271C155 272 152.5 279 152.5 283C151 289 149.3 305.5 146.5 315.5C145.5 316.5 140.8 293.2 136 280Z" stroke="black"/>
<path id="Vector 52" d="M178.236 281C179.069 277.333 181.236 264.5 180.736 264C179.236 264.5 165.236 270.5 160.236 272C159.236 273 161.736 280 161.736 284C163.236 290 164.936 306.5 167.736 316.5C168.736 317.5 173.436 294.2 178.236 281Z" stroke="black"/>
</g>
<g id="quads_inner">
<path id="Vector 53" d="M131 312.5C131.333 301.667 132.2 278.9 133 274.5C134.5 279.667 137.4 291.1 139 295.5C140 299.667 142 310 145.5 316.5C145.667 320.667 145.5 331.5 145 341.5C144 343.5 139.7 348.8 138.5 350C137.5 350.167 134 350.4 132 350C131.167 349.5 129.5 347.5 129.5 343.5C130 336.667 131 320.9 131 312.5Z" stroke="black"/>
<path id="Vector 54" d="M183.562 312C183.229 301.167 182.362 278.4 181.562 274C180.062 279.167 177.162 290.6 175.562 295C174.562 299.167 173.062 310 169.562 316.5C169.396 320.667 169.062 331 169.562 341C170.562 343 174.863 348.3 176.062 349.5C177.062 349.667 180.562 349.9 182.562 349.5C183.396 349 185.062 347 185.062 343C184.562 336.167 183.562 320.4 183.562 312Z" stroke="black"/>
</g>
<g id="quads_medial">
<path id="Vector 50" d="M193.628 248.014C192.628 245.514 189.628 232.514 188.128 233.014C187.461 233.681 186.6 235.3 185 236.5C184.5 236.5 185.867 245.862 185.5 253C185.372 255.486 183.664 260.013 183.5 261C183 264 184.1 281.114 184.5 287.514C186 299 184.5 333.758 186.628 338.014C187.128 339.014 193.528 326.314 195.128 321.514C197.295 314.681 202.028 298.314 203.628 287.514C203.628 285.014 204.128 275.514 203.628 273.514C200.128 270.014 197.628 254.514 193.628 248.014Z" stroke="black"/>
<path id="Vector 49" d="M119.5 247.5C120.5 245 123.5 232 125 232.5C125.667 233.167 126.9 234.8 128.5 236C129 236 128 246 128.5 253C128.679 255.5 130.836 260.513 131 261.5C131.5 264.5 130.4 280.6 130 287C129.167 298 130 333 126.5 337.5C126 338.5 119.6 325.8 118 321C115.833 314.167 111.1 297.8 109.5 287C109.5 284.5 109 275 109.5 273C113 269.5 115.5 254 119.5 247.5Z" stroke="black"/>
</g>
<g id="quads_outer">
<path id="Vector 55" d="M105.5 316.5C104 305 105.5 290.5 107.5 283.5C107.5 282.5 110.1 301.3 112.5 310.5C113.167 313.167 116.2 322.2 123 337C122.833 340 121.5 346 117.5 346C115 340.333 109.5 326.5 105.5 316.5Z" stroke="black"/>
<path id="Vector 56" d="M207.5 317.5C209 306 208 289 206 282C206 281 203.9 301.838 201.5 311.038C200.833 313.705 197.8 323.7 191 338.5C191.167 341.5 194 347 198 346.5C200.5 344.462 203.5 327.5 207.5 317.5Z" stroke="black"/>
</g>
<g id="tibialis">
<path id="Vector 63" d="M110.5 381.5C111 377.833 114 363 115.5 363.5C118.5 363.5 119 367 122 373.5C122 376 123 383.6 123 392C123 397.333 123.5 410 125.5 418C126.333 428 127.8 449.4 127 455C126.5 455.167 125.3 455.5 124.5 455.5C123.5 453 124.6 441.3 123 434.5C122.5 432.667 119.7 424.4 112.5 406C111.833 403 110.5 393.9 110.5 381.5Z" stroke="black"/>
<path id="Vector 64" d="M203.731 381.012C203.231 377.346 200.231 362.512 198.731 363.012C195.731 363.012 195.231 366.512 192.231 373.012C192.231 375.512 191.231 383.112 191.231 391.512C191.231 396.846 190.731 409.512 188.731 417.512C187.898 427.512 186.431 448.912 187.231 454.512C187.731 454.679 188.931 455.012 189.731 455.012C190.731 452.512 189.631 440.812 191.231 434.012C191.731 432.179 194.531 423.912 201.731 405.512C202.398 402.512 203.731 393.412 203.731 381.012Z" stroke="black"/>
</g>
<g id="calves">
<path id="Vector 67" d="M136.5 372.5C136.5 371 136.5 366 138.5 365C140 363.5 141.6 375.6 142 382C142.5 385 143.1 392.9 141.5 400.5C140.667 407.667 139 423.4 139 429C139 430.333 138.5 433 140 439.5C140.333 441.833 141.5 450 140 454.5C139 454.833 136.6 454.8 135 454C134.5 453.5 134.5 450.5 134 446.5C133.833 436.333 133.8 411.7 135 394.5C135.167 393 135.8 388.6 137 383C137 381.5 137.5 377.5 136.5 372.5Z" stroke="black"/>
<path id="Vector 68" d="M177.038 372.628C177.038 371.128 177.038 366.128 175.038 365.128C173.538 363.628 171.938 375.728 171.538 382.128C171.038 385.128 170.438 393.028 172.038 400.628C172.871 407.794 174.538 423.528 174.538 429.128C174.538 430.461 175.038 433.128 173.538 439.628C173.205 441.961 172.038 450.128 173.538 454.628C174.538 454.961 176.938 454.928 178.538 454.128C179.038 453.628 179.038 450.628 179.538 446.628C179.705 436.461 179.738 411.828 178.538 394.628C178.371 393.128 177.738 388.728 176.538 383.128C176.538 381.628 176.038 377.628 177.038 372.628Z" stroke="black"/>
</g>
<path id="Vector 32" d="M157 263.5C155 263.5 141 249.5 141 248.5H173C174 249 162.5 260.5 157 263.5Z" stroke="black"/>
<path id="Vector 44" d="M280 252.5C278 251 271.7 247.4 262.5 245C259.667 245.333 253.4 246.3 251 247.5C250.667 248.333 250 250.7 250 253.5C250.667 256.5 252.7 263.9 255.5 269.5C259 273.5 267.1 282.5 271.5 286.5C272.333 286.833 274.5 287.5 276.5 287.5C277.833 287.333 284 286.5 283.5 285.5C284 283.5 283.3 280.3 282.5 275.5C281.917 272 279 265 277 262.5C276.207 261.509 265.5 257.5 266 257C265.5 255.5 274.6 259.2 279 260C281.5 260.333 289.5 261.5 290 261C291 260.5 291.5 256.5 290 256C288.118 255.373 283.6 254.9 280 252.5Z" stroke="black"/>
<path id="Vector 43" d="M35 252C37 250.5 43.3 246.9 52.5 244.5C55.3333 244.833 61.6 245.8 64 247C64.3333 247.833 65 250.2 65 253C64.3333 256 62.3 263.4 59.5 269C56 273 47.9 282 43.5 286C42.6667 286.333 40.5 287 38.5 287C37.1667 286.833 31 286 31.5 285C31 283 31.7 279.8 32.5 275C33.0833 271.5 36 264.5 38 262C38.7929 261.009 49.5 257 49 256.5C49.5 255 40.4 258.7 36 259.5C33.5 259.833 25.5 261 25 260.5C24 260 23.5 256 25 255.5C26.8822 254.873 31.4 254.4 35 252Z" stroke="black"/>
<path id="Vector 45" d="M114.5 224.5C114.5 223.667 116 218.5 117 219C118.5 220 120.7 224.4 121.5 226L121.5 226C121.333 226.833 120.5 228.5 119.5 230.5C119 231.5 114.5 238.5 114.5 237.5V224.5Z" stroke="black"/>
<path id="Vector 46" d="M199 225.534C199 224.701 197.5 219.534 196.5 220.034C195 221.034 192.8 225.434 192 227.034L192 227.034C192.167 227.867 193 229.534 194 231.534C194.5 232.534 199 239.534 199 238.534V225.534Z" stroke="black"/>
<path id="Vector 57" d="M123 345C123 343 123.9 341.5 125.5 339.5C126.167 339.333 127.6 339.2 128 340C128 341.667 128.2 345.7 129 348.5C129 349.5 133 352 133 352.5C133.5 354 132.6 360.5 133 364.5C132.667 365.333 132.5 368 130.5 369C129.333 369 127 370 125 368C123 366 119.9 360.3 119.5 357.5C119.333 355.333 119.1 350.6 119.5 349C120.5 347.5 121.5 347.5 123 345Z" stroke="black"/>
<path id="Vector 58" d="M192.5 346C192 344.5 190.5 342.5 189.656 340.126C188.989 339.96 187.556 339.826 187.156 340.626C187.156 342.293 186 345.5 186.156 349.126C186.156 350.126 182.156 352.626 182.156 353.126C181.656 354.626 182.556 361.126 182.156 365.126C182.489 365.96 182.656 368.626 184.656 369.626C185.822 369.626 188.156 370.626 190.156 368.626C192.156 366.626 194.6 361.3 195 358.5C195.167 356.333 196 349 196 349C195 347.5 194.5 348 192.5 346Z" stroke="black"/>
<path id="Vector 59" d="M135.5 352.5C135 352.5 141.5 351 144 346C147 344.5 136 364.5 135.5 364V352.5Z" stroke="black"/>
<path id="Vector 60" d="M197 353.5C197 352.5 199 346 199.5 348L198.5 357.5C198 359 195.5 364 195.5 363C195.667 361.667 196.2 357.9 197 353.5Z" stroke="black"/>
<path id="Vector 61" d="M114 350.5C113.667 349.667 113.2 347 114 343C114.5 342.5 118 348.8 118 350C118.167 351.833 117.5 357 118.5 359C118.648 359.296 118.9 360.7 118.5 361.5C118.333 361.833 117.7 362.3 116.5 361.5C116 359.667 114.8 354.9 114 350.5Z" stroke="black"/>
<path id="Vector 62" d="M171 356C170.5 354.833 169.8 351.6 171 348C171.5 347.5 172.5 350.5 179 351.5L179.5 357.5C180 359.5 179.5 363.5 179 364.5C177.833 363.5 173.4 360 171 356Z" stroke="black"/>
<path id="Vector 65" d="M134 371C132.333 371 127 370 124 371C123 372 126 399.2 126 412C127.167 416.5 129.3 429.1 128.5 443.5L129.5 454.5C130 455 133 455 133 453.5C132.667 444.5 132 421.6 132 408C132.167 405.5 132.8 398.9 134 392.5C134 390.167 134.5 384 136 379.5C136 377.5 135.5 371 134 371Z" stroke="black"/>
<path id="Vector 66" d="M180 370.444C181.667 370.444 187 369.444 190 370.444C191 371.444 188 398.644 188 411.444C186.833 415.944 184.7 428.544 185.5 442.944L184.5 453.944C184 454.444 181 454.444 181 452.944C181.333 443.944 182 421.044 182 407.444C181.833 404.944 181.2 398.344 180 391.944C180 389.611 179.5 383.444 178 378.944C178 376.944 178.5 370.444 180 370.444Z" stroke="black"/>
<path id="Vector 69" d="M122.5 460C123 459.5 124.5 457 128 456C129.5 456 133.5 456.5 139.5 456C140.5 456 141.1 457.5 141.5 459.5C141.667 460.333 141.7 463.1 140.5 467.5C139 469 135.5 470.5 135 471.5C134.833 472.167 134.6 474.2 135 477C134.5 480.5 133.4 488 133 490C131.833 491.333 128.9 494.3 126.5 495.5C124.333 495.833 119.5 496.4 117.5 496C116 495.5 112.7 494.2 111.5 493C110.667 492.167 108.9 489.9 108.5 487.5C108.333 486.833 108.3 484.3 109.5 479.5C110 478.167 112.1 473.9 116.5 467.5C117.167 466.333 118.9 463.6 122.5 460Z" stroke="black"/>
<path id="Vector 70" d="M191.085 460C190.585 459.5 189.085 457 185.585 456C184.085 456 180.085 456.5 174.085 456C173.085 456 172.485 457.5 172.085 459.5C171.918 460.333 171.885 463.1 173.085 467.5C174.585 469 178.085 470.5 178.585 471.5C178.751 472.167 178.985 474.2 178.585 477C179.085 480.5 180.185 488 180.585 490C181.751 491.333 184.685 494.3 187.085 495.5C189.251 495.833 194.085 496.4 196.085 496C197.585 495.5 200.885 494.2 202.085 493C202.918 492.167 204.685 489.9 205.085 487.5C205.251 486.833 205.285 484.3 204.085 479.5C203.585 478.167 201.485 473.9 197.085 467.5C196.418 466.333 194.685 463.6 191.085 460Z" stroke="black"/>
<path id="Vector 1" d="M159.5 80.5C156.937 80.9047 148.5 82 142 71.5C141.333 68.5 139.8 62.5 139 62.5C138 62.5 135.5 62 135 61C134.5 60.0001 133.633 57.3981 133 55.5008L133 55.5C132.5 54 132.5 48.5 133 47C133.316 46.0513 136 47.5 136.5 47C137 46.5 136.5 31 137.5 29C138.5 27 147.932 18.767 151 18C153 17.5 161 16.5 164.5 18.5C167.57 20.2541 175.051 26.7351 176 28C177.5 30 176.5 46 177.5 47C178.5 48 178 47 181 47C182 50.5 180.358 57.7845 180 58.5C179.5 59.5 176.167 61 175.5 62.5C173.833 63 171.412 69.8536 171 71.5C170.5 73.5 169 79 159.5 80.5Z" stroke="black"/>
</g>
</svg>
